<svg version="1.1" xmlns="http://www.w3.org/2000/svg" xmlns:xlink="http://www.w3.org/1999/xlink" width="45.40768" height="20.43042" viewBox="0,0,45.40768,20.43042"><g transform="translate(-171.05186,-147.22449)"><g data-paper-data="{&quot;isPaintingLayer&quot;:true}" fill="#e0cf82" fill-rule="nonzero" stroke="#000000" stroke-width="0.5" stroke-linecap="round" stroke-linejoin="miter" stroke-miterlimit="10" stroke-dasharray="" stroke-dashoffset="0" style="mix-blend-mode: normal"><path d="M211.21681,154.63416c-1.00343,0.51945 -2.17295,1.49723 -3.71211,1.91321c-0.98969,0.26748 -1.98435,1.35194 -2.98076,1.7312c-4.65512,1.77188 -9.3484,3.77174 -13.75192,5.23937c-5.13888,1.71271 -9.17203,2.63205 -9.17203,2.63205c0,0 -2.592,0.52381 -5.77861,0.95779c-0.52618,0.07166 -1.06856,0.16236 -1.61817,0.26657c-0.13731,-0.26964 -0.60096,-0.03496 -1.11957,-0.13474c-0.44093,-0.08484 -0.92159,-0.51043 -1.27522,-0.63902c-0.42357,-0.15402 -0.46573,-0.64326 -0.50658,-0.76582c-0.19124,-0.57373 -0.14033,-1.84318 0.00476,-2.65177c0.0532,-0.29651 0.61366,-0.22193 0.47486,-0.46874c1.61992,-0.26601 3.26857,-0.55425 4.27543,-0.8628c3.26421,-1.00031 7.31966,-1.22125 11.04928,-2.5954c3.12442,-1.15117 6.86454,-1.42293 10.15305,-2.77265c1.83726,-0.75408 3.68702,-2.2877 5.53792,-3.09266c2.50572,-1.08975 4.76352,-2.96034 7.2452,-4.09318c1.29467,-0.59099 2.91066,-1.1825 4.06924,-1.77223c0.26621,0.24044 1.15387,0.13135 1.34679,0.4734c0.99964,1.77239 0.7927,2.58206 0.55507,3.47503c-0.1784,0.67039 -1.82535,0.81005 -1.63602,1.35405c-1.04318,0.61824 -1.98861,1.19963 -3.16063,1.80635z"/></g></g></svg>